<?xml version="1.0" encoding="UTF-8" standalone="no"?>
<!-- Created with Inkscape (http://www.inkscape.org/) -->

<svg
   xmlns:dc="http://purl.org/dc/elements/1.1/"
   xmlns:cc="http://creativecommons.org/ns#"
   xmlns:rdf="http://www.w3.org/1999/02/22-rdf-syntax-ns#"
   xmlns:svg="http://www.w3.org/2000/svg"
   xmlns="http://www.w3.org/2000/svg"
   xmlns:sodipodi="http://sodipodi.sourceforge.net/DTD/sodipodi-0.dtd"
   xmlns:inkscape="http://www.inkscape.org/namespaces/inkscape"
   width="768"
   height="640"
   id="svg4234"
   version="1.1"
   inkscape:version="0.48.4 r9939"
   sodipodi:docname="IFD_PitchLadder.svg">
  <defs
     id="defs4236" />
  <sodipodi:namedview
     id="base"
     pagecolor="#000000"
     bordercolor="#666666"
     borderopacity="1.0"
     inkscape:pageopacity="0.41960784"
     inkscape:pageshadow="2"
     inkscape:zoom="0.35"
     inkscape:cx="74.589972"
     inkscape:cy="887.73506"
     inkscape:document-units="px"
     inkscape:current-layer="layer1"
     showgrid="false"
     showguides="true"
     inkscape:guide-bbox="true"
     inkscape:snap-bbox="true"
     inkscape:bbox-nodes="true"
     inkscape:snap-bbox-midpoints="true"
     inkscape:window-width="1920"
     inkscape:window-height="1025"
     inkscape:window-x="-2"
     inkscape:window-y="-3"
     inkscape:window-maximized="1"
     inkscape:snap-page="true">
    <sodipodi:guide
       orientation="0,1"
       position="340.71429,407.14286"
       id="guide4315" />
    <sodipodi:guide
       orientation="0,1"
       position="326.27927,158.08887"
       id="guide4471" />
    <sodipodi:guide
       orientation="0,1"
       position="303.04576,30.809653"
       id="guide4473" />
    <sodipodi:guide
       orientation="1,0"
       position="384,757.14286"
       id="guide4497" />
    <sodipodi:guide
       orientation="0,1"
       position="384,292.43916"
       id="guide4499" />
    <sodipodi:guide
       orientation="1,0"
       position="608.99572,40.027295"
       id="guide4522" />
    <sodipodi:guide
       orientation="0,1"
       position="627.69433,37.425819"
       id="guide4524" />
    <sodipodi:guide
       orientation="0,1"
       position="569.22096,-91.418805"
       id="guide4526" />
    <sodipodi:guide
       orientation="1,0"
       position="159.09903,37.425819"
       id="guide4528" />
    <sodipodi:guide
       orientation="0,1"
       position="267.69042,676.80221"
       id="guide4572" />
    <sodipodi:guide
       orientation="0,1"
       position="550.02806,931.86572"
       id="guide4595" />
    <sodipodi:guide
       orientation="0,1"
       position="200,-347.5"
       id="guide4627" />
  </sodipodi:namedview>
  <metadata
     id="metadata4239">
    <rdf:RDF>
      <cc:Work
         rdf:about="">
        <dc:format>image/svg+xml</dc:format>
        <dc:type
           rdf:resource="http://purl.org/dc/dcmitype/StillImage" />
        <dc:title></dc:title>
      </cc:Work>
    </rdf:RDF>
  </metadata>
  <g
     inkscape:label="Ebene 1"
     inkscape:groupmode="layer"
     id="layer1"
     transform="translate(0,-412.36218)">
    <g
       id="PitchLadder"
       mask="none">
      <path
         sodipodi:nodetypes="ccccccccc"
         inkscape:connector-curvature="0"
         id="rect12862"
         d="m 167.67095,626.34723 432.65817,0 0,13.14566 -3.61549,0 0,-7.44191 -425.42719,0 0,7.44191 -3.61549,0 z"
         style="fill:#ffffff;fill-opacity:1;stroke:none" />
      <rect
         y="694.93567"
         x="329.633"
         height="3.3075001"
         width="108.73406"
         id="rect12865"
         style="fill:#ffffff;fill-opacity:1;stroke:none" />
      <rect
         y="758.60504"
         x="171.28645"
         height="3.3075001"
         width="425.42719"
         id="rect12865-0"
         style="fill:#ffffff;fill-opacity:1;stroke:none" />
      <path
         sodipodi:nodetypes="ccccccccc"
         inkscape:connector-curvature="0"
         id="rect12862-8"
         d="m 167.67095,499.00848 432.65817,0 0,13.14564 -3.61549,2e-5 0,-7.44191 -425.42719,0 0,7.44191 -3.61549,-2e-5 z"
         style="fill:#ffffff;fill-opacity:1;stroke:none" />
      <rect
         y="566.55005"
         x="329.633"
         height="3.3075001"
         width="108.73406"
         id="rect12865-3"
         style="fill:#ffffff;fill-opacity:1;stroke:none" />
      <path
         sodipodi:nodetypes="ccccccccc"
         inkscape:connector-curvature="0"
         id="rect12862-9"
         d="m 167.67095,894.1704 432.65817,0 0,-13.14566 -3.61549,0 0,7.44191 -425.42719,0 0,-7.44191 -3.61549,0 z"
         style="fill:#ffffff;fill-opacity:1;stroke:none" />
      <path
         sodipodi:nodetypes="ccccccccc"
         inkscape:connector-curvature="0"
         id="rect12862-9-9"
         d="m 167.67095,1021.5091 432.65817,0 0,-13.1456 -3.61549,0 0,7.4419 -425.42719,0 0,-7.4419 -3.61549,0 z"
         style="fill:#ffffff;fill-opacity:1;stroke:none" />
      <rect
         y="949.61316"
         x="329.633"
         height="3.3075001"
         width="108.73406"
         id="rect12865-7"
         style="fill:#ffffff;fill-opacity:1;stroke:none" />
      <rect
         y="440.25821"
         x="329.633"
         height="3.3075001"
         width="108.73406"
         id="rect12865-3-7"
         style="fill:#ffffff;fill-opacity:1;stroke:none" />
      <g
         id="g5103">
        <path
           d="m 135.00962,638.60483 3.15357,0 0,-11.44065 -3.23702,0.85361 0,-3.10617 3.21849,-0.85361 3.39471,0 0,14.54682 3.15357,0 0,3.15361 -9.68332,0 0,-3.15361"
           style="font-size:18.55173492px;font-style:normal;font-variant:normal;font-weight:bold;font-stretch:normal;text-align:center;line-height:125%;letter-spacing:0px;word-spacing:0px;writing-mode:lr-tb;text-anchor:middle;fill:#ffffff;fill-opacity:1;stroke:#ffffff;stroke-width:0.69526905;stroke-opacity:1;font-family:Liberation Sans;-inkscape-font-specification:Sans Bold"
           id="path14213"
           inkscape:connector-curvature="0" />
        <path
           d="m 154.7286,632.89043 c 0,-2.21303 -0.16383,-3.77007 -0.49158,-4.6711 -0.32152,-0.90892 -0.86563,-1.36338 -1.63244,-1.36339 -0.76671,10e-6 -1.3139,0.45447 -1.64166,1.36339 -0.32775,0.90103 -0.49158,2.45807 -0.49158,4.6711 0,2.23677 0.16383,3.81356 0.49158,4.73039 0.32776,0.91685 0.87495,1.37526 1.64166,1.37525 0.76057,10e-6 1.30478,-0.4584 1.63244,-1.37525 0.32775,-0.91683 0.49158,-2.49362 0.49158,-4.73039 m 3.57093,0.0356 c 0,2.93229 -0.49466,5.19671 -1.48397,6.79326 -0.98942,1.58865 -2.39301,2.38298 -4.21098,2.38298 -1.82412,0 -3.23078,-0.79433 -4.2202,-2.38298 -0.98931,-1.59655 -1.48397,-3.86097 -1.48397,-6.79326 0,-2.94018 0.49466,-5.2046 1.48397,-6.79326 0.98942,-1.59654 2.39608,-2.39482 4.2202,-2.39484 1.81797,2e-5 3.22156,0.7983 4.21098,2.39484 0.98931,1.58866 1.48397,3.85308 1.48397,6.79326"
           style="font-size:18.55173492px;font-style:normal;font-variant:normal;font-weight:bold;font-stretch:normal;text-align:center;line-height:125%;letter-spacing:0px;word-spacing:0px;writing-mode:lr-tb;text-anchor:middle;fill:#ffffff;fill-opacity:1;stroke:#ffffff;stroke-width:0.69526905;stroke-opacity:1;font-family:Liberation Sans;-inkscape-font-specification:Sans Bold"
           id="path14215"
           inkscape:connector-curvature="0" />
      </g>
      <g
         id="g5097">
        <path
           d="m 609.784,638.60483 3.15358,0 0,-11.44065 -3.23702,0.85361 0,-3.10617 3.21849,-0.85361 3.39471,0 0,14.54682 3.15357,0 0,3.15361 -9.68333,0 0,-3.15361"
           style="font-size:18.55173492px;font-style:normal;font-variant:normal;font-weight:bold;font-stretch:normal;text-align:center;line-height:125%;letter-spacing:0px;word-spacing:0px;writing-mode:lr-tb;text-anchor:middle;fill:#ffffff;fill-opacity:1;stroke:#ffffff;stroke-width:0.69526905;stroke-opacity:1;font-family:Liberation Sans;-inkscape-font-specification:Sans Bold"
           id="path14238"
           inkscape:connector-curvature="0" />
        <path
           d="m 629.50299,632.89043 c 0,-2.21303 -0.16383,-3.77007 -0.49159,-4.6711 -0.32151,-0.90892 -0.86562,-1.36338 -1.63243,-1.36339 -0.76672,10e-6 -1.3139,0.45447 -1.64166,1.36339 -0.32775,0.90103 -0.49158,2.45807 -0.49158,4.6711 0,2.23677 0.16383,3.81356 0.49158,4.73039 0.32776,0.91685 0.87494,1.37526 1.64166,1.37525 0.76056,10e-6 1.30478,-0.4584 1.63243,-1.37525 0.32776,-0.91683 0.49159,-2.49362 0.49159,-4.73039 m 3.57092,0.0356 c 0,2.93229 -0.49465,5.19671 -1.48397,6.79326 -0.98941,1.58865 -2.393,2.38298 -4.21097,2.38298 -1.82412,0 -3.23078,-0.79433 -4.2202,-2.38298 -0.98931,-1.59655 -1.48397,-3.86097 -1.48397,-6.79326 0,-2.94018 0.49466,-5.2046 1.48397,-6.79326 0.98942,-1.59654 2.39608,-2.39482 4.2202,-2.39484 1.81797,2e-5 3.22156,0.7983 4.21097,2.39484 0.98932,1.58866 1.48397,3.85308 1.48397,6.79326"
           style="font-size:18.55173492px;font-style:normal;font-variant:normal;font-weight:bold;font-stretch:normal;text-align:center;line-height:125%;letter-spacing:0px;word-spacing:0px;writing-mode:lr-tb;text-anchor:middle;fill:#ffffff;fill-opacity:1;stroke:#ffffff;stroke-width:0.69526905;stroke-opacity:1;font-family:Liberation Sans;-inkscape-font-specification:Sans Bold"
           id="path14240"
           inkscape:connector-curvature="0" />
      </g>
      <g
         id="g5109">
        <path
           d="m 135.00962,893.28234 3.15357,0 0,-11.44067 -3.23702,0.85361 0,-3.10618 3.21849,-0.8536 3.39471,0 0,14.54684 3.15357,0 0,3.15359 -9.68332,0 0,-3.15359"
           style="font-size:18.55173492px;font-style:normal;font-variant:normal;font-weight:bold;font-stretch:normal;text-align:center;line-height:125%;letter-spacing:0px;word-spacing:0px;writing-mode:lr-tb;text-anchor:middle;fill:#ffffff;fill-opacity:1;stroke:#ffffff;stroke-width:0.69526905;stroke-opacity:1;font-family:Liberation Sans;-inkscape-font-specification:Sans Bold"
           id="path14218"
           inkscape:connector-curvature="0" />
        <path
           d="m 154.7286,887.56793 c 0,-2.21304 -0.16383,-3.77006 -0.49158,-4.67111 -0.32152,-0.90892 -0.86563,-1.36338 -1.63244,-1.36339 -0.76671,1e-5 -1.3139,0.45447 -1.64166,1.36339 -0.32775,0.90105 -0.49158,2.45807 -0.49158,4.67111 0,2.23676 0.16383,3.81356 0.49158,4.73038 0.32776,0.91685 0.87495,1.37526 1.64166,1.37526 0.76057,0 1.30478,-0.45841 1.63244,-1.37526 0.32775,-0.91682 0.49158,-2.49362 0.49158,-4.73038 m 3.57093,0.0356 c 0,2.9323 -0.49466,5.19671 -1.48397,6.79327 -0.98942,1.58865 -2.39301,2.38297 -4.21098,2.38297 -1.82412,0 -3.23078,-0.79432 -4.2202,-2.38297 -0.98931,-1.59656 -1.48397,-3.86097 -1.48397,-6.79327 0,-2.94018 0.49466,-5.20459 1.48397,-6.79326 0.98942,-1.59654 2.39608,-2.39481 4.2202,-2.39483 1.81797,2e-5 3.22156,0.79829 4.21098,2.39483 0.98931,1.58867 1.48397,3.85308 1.48397,6.79326"
           style="font-size:18.55173492px;font-style:normal;font-variant:normal;font-weight:bold;font-stretch:normal;text-align:center;line-height:125%;letter-spacing:0px;word-spacing:0px;writing-mode:lr-tb;text-anchor:middle;fill:#ffffff;fill-opacity:1;stroke:#ffffff;stroke-width:0.69526905;stroke-opacity:1;font-family:Liberation Sans;-inkscape-font-specification:Sans Bold"
           id="path14220"
           inkscape:connector-curvature="0" />
      </g>
      <g
         id="g5115">
        <path
           d="m 609.784,893.28234 3.15358,0 0,-11.44067 -3.23702,0.85361 0,-3.10618 3.21849,-0.8536 3.39471,0 0,14.54684 3.15357,0 0,3.15359 -9.68333,0 0,-3.15359"
           style="font-size:18.55173492px;font-style:normal;font-variant:normal;font-weight:bold;font-stretch:normal;text-align:center;line-height:125%;letter-spacing:0px;word-spacing:0px;writing-mode:lr-tb;text-anchor:middle;fill:#ffffff;fill-opacity:1;stroke:#ffffff;stroke-width:0.69526905;stroke-opacity:1;font-family:Liberation Sans;-inkscape-font-specification:Sans Bold"
           id="path14233"
           inkscape:connector-curvature="0" />
        <path
           d="m 629.50299,887.56793 c 0,-2.21304 -0.16383,-3.77006 -0.49159,-4.67111 -0.32151,-0.90892 -0.86562,-1.36338 -1.63243,-1.36339 -0.76672,1e-5 -1.3139,0.45447 -1.64166,1.36339 -0.32775,0.90105 -0.49158,2.45807 -0.49158,4.67111 0,2.23676 0.16383,3.81356 0.49158,4.73038 0.32776,0.91685 0.87494,1.37526 1.64166,1.37526 0.76056,0 1.30478,-0.45841 1.63243,-1.37526 0.32776,-0.91682 0.49159,-2.49362 0.49159,-4.73038 m 3.57092,0.0356 c 0,2.9323 -0.49465,5.19671 -1.48397,6.79327 -0.98941,1.58865 -2.393,2.38297 -4.21097,2.38297 -1.82412,0 -3.23078,-0.79432 -4.2202,-2.38297 -0.98931,-1.59656 -1.48397,-3.86097 -1.48397,-6.79327 0,-2.94018 0.49466,-5.20459 1.48397,-6.79326 0.98942,-1.59654 2.39608,-2.39481 4.2202,-2.39483 1.81797,2e-5 3.22156,0.79829 4.21097,2.39483 0.98932,1.58867 1.48397,3.85308 1.48397,6.79326"
           style="font-size:18.55173492px;font-style:normal;font-variant:normal;font-weight:bold;font-stretch:normal;text-align:center;line-height:125%;letter-spacing:0px;word-spacing:0px;writing-mode:lr-tb;text-anchor:middle;fill:#ffffff;fill-opacity:1;stroke:#ffffff;stroke-width:0.69526905;stroke-opacity:1;font-family:Liberation Sans;-inkscape-font-specification:Sans Bold"
           id="path14235"
           inkscape:connector-curvature="0" />
      </g>
      <g
         id="g5121">
        <path
           d="m 613.35032,1020.4196 6.09377,0 0,3.3551 -10.06351,0 0,-3.3551 5.05489,-5.7026 c 0.45145,-0.5216 0.78535,-1.0314 1.00181,-1.5294 0.21635,-0.4979 0.32458,-1.0156 0.32458,-1.553 0,-0.8299 -0.21953,-1.4978 -0.65858,-2.0036 -0.43282,-0.5059 -1.01092,-0.7588 -1.73442,-0.7588 -0.55651,0 -1.16553,0.1541 -1.82719,0.4624 -0.66166,0.3003 -1.3696,0.7508 -2.12402,1.3515 l 0,-3.8886 c 0.80388,-0.3399 1.59844,-0.5968 2.38368,-0.7707 0.78535,-0.1817 1.55514,-0.2726 2.30956,-0.2726 1.65712,0 2.94326,0.4663 3.85844,1.3989 0.92133,0.9327 1.38199,2.2328 1.38199,3.9005 0,0.9643 -0.19475,1.8653 -0.58435,2.7031 -0.3895,0.8299 -1.20884,1.9443 -2.45792,3.3433 l -2.95873,3.3196"
           style="font-size:18.55173492px;font-style:normal;font-variant:normal;font-weight:bold;font-stretch:normal;text-align:center;line-height:125%;letter-spacing:0px;word-spacing:0px;writing-mode:lr-tb;text-anchor:middle;fill:#ffffff;fill-opacity:1;stroke:#ffffff;stroke-width:0.69526905;stroke-opacity:1;font-family:Liberation Sans;-inkscape-font-specification:Sans Bold"
           id="path14228"
           inkscape:connector-curvature="0" />
        <path
           d="m 629.82296,1014.9067 c 0,-2.213 -0.16382,-3.7701 -0.49158,-4.6711 -0.32151,-0.9089 -0.86562,-1.3634 -1.63244,-1.3634 -0.76671,0 -1.31389,0.4545 -1.64165,1.3634 -0.32776,0.901 -0.49159,2.4581 -0.49159,4.6711 0,2.2368 0.16383,3.8135 0.49159,4.7304 0.32776,0.9168 0.87494,1.3752 1.64165,1.3752 0.76057,0 1.30478,-0.4584 1.63244,-1.3752 0.32776,-0.9169 0.49158,-2.4936 0.49158,-4.7304 m 3.57093,0.036 c 0,2.9323 -0.49466,5.1967 -1.48397,6.7933 -0.98942,1.5886 -2.39301,2.3829 -4.21098,2.3829 -1.82411,0 -3.23078,-0.7943 -4.22019,-2.3829 -0.98932,-1.5966 -1.48397,-3.861 -1.48397,-6.7933 0,-2.9402 0.49465,-5.2046 1.48397,-6.7933 0.98941,-1.5965 2.39608,-2.3948 4.22019,-2.3948 1.81797,0 3.22156,0.7983 4.21098,2.3948 0.98931,1.5887 1.48397,3.8531 1.48397,6.7933"
           style="font-size:18.55173492px;font-style:normal;font-variant:normal;font-weight:bold;font-stretch:normal;text-align:center;line-height:125%;letter-spacing:0px;word-spacing:0px;writing-mode:lr-tb;text-anchor:middle;fill:#ffffff;fill-opacity:1;stroke:#ffffff;stroke-width:0.69526905;stroke-opacity:1;font-family:Liberation Sans;-inkscape-font-specification:Sans Bold"
           id="path14230"
           inkscape:connector-curvature="0" />
      </g>
      <g
         id="g5127">
        <path
           d="m 138.57593,1020.4196 6.09377,0 0,3.3551 -10.06351,0 0,-3.3551 5.0549,-5.7026 c 0.45144,-0.5216 0.78534,-1.0314 1.0018,-1.5294 0.21636,-0.4979 0.32458,-1.0156 0.32458,-1.553 0,-0.8299 -0.21952,-1.4978 -0.65848,-2.0036 -0.43291,-0.5059 -1.01102,-0.7588 -1.73452,-0.7588 -0.5565,0 -1.16553,0.1541 -1.82719,0.4624 -0.66166,0.3003 -1.3696,0.7508 -2.12402,1.3515 l 0,-3.8886 c 0.80388,-0.3399 1.59844,-0.5968 2.38369,-0.7707 0.78534,-0.1817 1.55513,-0.2726 2.30955,-0.2726 1.65712,0 2.94326,0.4663 3.85845,1.3989 0.92132,0.9327 1.38198,2.2328 1.38198,3.9005 0,0.9643 -0.19475,1.8653 -0.58435,2.7031 -0.3895,0.8299 -1.20884,1.9443 -2.45782,3.3433 l -2.95883,3.3196"
           style="font-size:18.55173492px;font-style:normal;font-variant:normal;font-weight:bold;font-stretch:normal;text-align:center;line-height:125%;letter-spacing:0px;word-spacing:0px;writing-mode:lr-tb;text-anchor:middle;fill:#ffffff;fill-opacity:1;stroke:#ffffff;stroke-width:0.69526905;stroke-opacity:1;font-family:Liberation Sans;-inkscape-font-specification:Sans Bold"
           id="path14223"
           inkscape:connector-curvature="0" />
        <path
           d="m 155.04858,1014.9067 c 0,-2.213 -0.16383,-3.7701 -0.49159,-4.6711 -0.32151,-0.9089 -0.86562,-1.3634 -1.63244,-1.3634 -0.76671,0 -1.31389,0.4545 -1.64165,1.3634 -0.32776,0.901 -0.49158,2.4581 -0.49158,4.6711 0,2.2368 0.16382,3.8135 0.49158,4.7304 0.32776,0.9168 0.87494,1.3752 1.64165,1.3752 0.76057,0 1.30479,-0.4584 1.63244,-1.3752 0.32776,-0.9169 0.49159,-2.4936 0.49159,-4.7304 m 3.57092,0.036 c 0,2.9323 -0.49466,5.1967 -1.48397,6.7933 -0.98941,1.5886 -2.393,2.3829 -4.21098,2.3829 -1.82411,0 -3.23078,-0.7943 -4.22019,-2.3829 -0.98931,-1.5966 -1.48397,-3.861 -1.48397,-6.7933 0,-2.9402 0.49466,-5.2046 1.48397,-6.7933 0.98941,-1.5965 2.39608,-2.3948 4.22019,-2.3948 1.81798,0 3.22157,0.7983 4.21098,2.3948 0.98931,1.5887 1.48397,3.8531 1.48397,6.7933"
           style="font-size:18.55173492px;font-style:normal;font-variant:normal;font-weight:bold;font-stretch:normal;text-align:center;line-height:125%;letter-spacing:0px;word-spacing:0px;writing-mode:lr-tb;text-anchor:middle;fill:#ffffff;fill-opacity:1;stroke:#ffffff;stroke-width:0.69526905;stroke-opacity:1;font-family:Liberation Sans;-inkscape-font-specification:Sans Bold"
           id="path14225"
           inkscape:connector-curvature="0" />
      </g>
      <g
         id="g5085">
        <path
           d="m 138.57593,511.06452 6.09377,0 0,3.35515 -10.06351,0 0,-3.35515 5.0549,-5.70254 c 0.45144,-0.52163 0.78534,-1.03143 1.0018,-1.52937 0.21636,-0.49793 0.32458,-1.01562 0.32458,-1.55309 0,-0.82988 -0.21952,-1.49774 -0.65848,-2.0036 -0.43291,-0.50582 -1.01102,-0.75874 -1.73452,-0.75875 -0.5565,10e-6 -1.16553,0.15413 -1.82719,0.46237 -0.66166,0.30035 -1.3696,0.75086 -2.12402,1.35153 l 0,-3.88863 c 0.80388,-0.33984 1.59844,-0.59672 2.38369,-0.77062 0.78534,-0.18176 1.55513,-0.27266 2.30955,-0.27268 1.65712,2e-5 2.94326,0.46634 3.85845,1.39896 0.92132,0.93266 1.38198,2.23282 1.38198,3.9005 0,0.96426 -0.19475,1.86529 -0.58435,2.70308 -0.3895,0.8299 -1.20884,1.94432 -2.45782,3.34327 l -2.95883,3.31957"
           style="font-size:18.55173492px;font-style:normal;font-variant:normal;font-weight:bold;font-stretch:normal;text-align:center;line-height:125%;letter-spacing:0px;word-spacing:0px;writing-mode:lr-tb;text-anchor:middle;fill:#ffffff;fill-opacity:1;stroke:#ffffff;stroke-width:0.69526905;stroke-opacity:1;font-family:Liberation Sans;-inkscape-font-specification:Sans Bold"
           id="path14208"
           inkscape:connector-curvature="0" />
        <path
           d="m 155.04858,505.55167 c 0,-2.21304 -0.16383,-3.77006 -0.49159,-4.67111 -0.32151,-0.90892 -0.86562,-1.36338 -1.63244,-1.36339 -0.76671,10e-6 -1.31389,0.45447 -1.64165,1.36339 -0.32776,0.90105 -0.49158,2.45807 -0.49158,4.67111 0,2.23676 0.16382,3.81356 0.49158,4.73039 0.32776,0.91684 0.87494,1.37525 1.64165,1.37525 0.76057,0 1.30479,-0.45841 1.63244,-1.37525 0.32776,-0.91683 0.49159,-2.49363 0.49159,-4.73039 m 3.57092,0.0356 c 0,2.9323 -0.49466,5.19671 -1.48397,6.79327 -0.98941,1.58865 -2.393,2.38297 -4.21098,2.38297 -1.82411,0 -3.23078,-0.79432 -4.22019,-2.38297 -0.98931,-1.59656 -1.48397,-3.86097 -1.48397,-6.79327 0,-2.94018 0.49466,-5.20459 1.48397,-6.79326 0.98941,-1.59654 2.39608,-2.39481 4.22019,-2.39483 1.81798,2e-5 3.22157,0.79829 4.21098,2.39483 0.98931,1.58867 1.48397,3.85308 1.48397,6.79326"
           style="font-size:18.55173492px;font-style:normal;font-variant:normal;font-weight:bold;font-stretch:normal;text-align:center;line-height:125%;letter-spacing:0px;word-spacing:0px;writing-mode:lr-tb;text-anchor:middle;fill:#ffffff;fill-opacity:1;stroke:#ffffff;stroke-width:0.69526905;stroke-opacity:1;font-family:Liberation Sans;-inkscape-font-specification:Sans Bold"
           id="path14210"
           inkscape:connector-curvature="0" />
      </g>
      <g
         id="g5091">
        <path
           d="m 613.35032,511.06452 6.09377,0 0,3.35515 -10.06351,0 0,-3.35515 5.05489,-5.70254 c 0.45145,-0.52163 0.78535,-1.03143 1.00181,-1.52937 0.21635,-0.49793 0.32458,-1.01562 0.32458,-1.55309 0,-0.82988 -0.21953,-1.49774 -0.65858,-2.0036 -0.43282,-0.50582 -1.01092,-0.75874 -1.73442,-0.75875 -0.55651,10e-6 -1.16553,0.15413 -1.82719,0.46237 -0.66166,0.30035 -1.3696,0.75086 -2.12402,1.35153 l 0,-3.88863 c 0.80388,-0.33984 1.59844,-0.59672 2.38368,-0.77062 0.78535,-0.18176 1.55514,-0.27266 2.30956,-0.27268 1.65712,2e-5 2.94326,0.46634 3.85844,1.39896 0.92133,0.93266 1.38199,2.23282 1.38199,3.9005 0,0.96426 -0.19475,1.86529 -0.58435,2.70308 -0.3895,0.8299 -1.20884,1.94432 -2.45792,3.34327 l -2.95873,3.31957"
           style="font-size:18.55173492px;font-style:normal;font-variant:normal;font-weight:bold;font-stretch:normal;text-align:center;line-height:125%;letter-spacing:0px;word-spacing:0px;writing-mode:lr-tb;text-anchor:middle;fill:#ffffff;fill-opacity:1;stroke:#ffffff;stroke-width:0.69526905;stroke-opacity:1;font-family:Liberation Sans;-inkscape-font-specification:Sans Bold"
           id="path14243"
           inkscape:connector-curvature="0" />
        <path
           d="m 629.82296,505.55167 c 0,-2.21304 -0.16382,-3.77006 -0.49158,-4.67111 -0.32151,-0.90892 -0.86562,-1.36338 -1.63244,-1.36339 -0.76671,10e-6 -1.31389,0.45447 -1.64165,1.36339 -0.32776,0.90105 -0.49159,2.45807 -0.49159,4.67111 0,2.23676 0.16383,3.81356 0.49159,4.73039 0.32776,0.91684 0.87494,1.37525 1.64165,1.37525 0.76057,0 1.30478,-0.45841 1.63244,-1.37525 0.32776,-0.91683 0.49158,-2.49363 0.49158,-4.73039 m 3.57093,0.0356 c 0,2.9323 -0.49466,5.19671 -1.48397,6.79327 -0.98942,1.58865 -2.39301,2.38297 -4.21098,2.38297 -1.82411,0 -3.23078,-0.79432 -4.22019,-2.38297 -0.98932,-1.59656 -1.48397,-3.86097 -1.48397,-6.79327 0,-2.94018 0.49465,-5.20459 1.48397,-6.79326 0.98941,-1.59654 2.39608,-2.39481 4.22019,-2.39483 1.81797,2e-5 3.22156,0.79829 4.21098,2.39483 0.98931,1.58867 1.48397,3.85308 1.48397,6.79326"
           style="font-size:18.55173492px;font-style:normal;font-variant:normal;font-weight:bold;font-stretch:normal;text-align:center;line-height:125%;letter-spacing:0px;word-spacing:0px;writing-mode:lr-tb;text-anchor:middle;fill:#ffffff;fill-opacity:1;stroke:#ffffff;stroke-width:0.69526905;stroke-opacity:1;font-family:Liberation Sans;-inkscape-font-specification:Sans Bold"
           id="path14245"
           inkscape:connector-curvature="0" />
      </g>
      <path
         style="fill:#ffffff;fill-opacity:1;stroke:none"
         d="m 167.67095,1149.5091 432.65817,0 0,-13.1456 -3.61549,0 0,7.4419 -425.42719,0 0,-7.4419 -3.61549,0 z"
         id="path4477"
         inkscape:connector-curvature="0"
         sodipodi:nodetypes="ccccccccc" />
      <rect
         style="fill:#ffffff;fill-opacity:1;stroke:none"
         id="rect4479"
         width="108.73406"
         height="3.3075001"
         x="329.633"
         y="1077.6132" />
      <path
         style="fill:#ffffff;fill-opacity:1;stroke:none"
         d="m 167.67095,1405.5091 432.65817,0 0,-13.1456 -3.61549,0 0,7.4419 -425.42719,0 0,-7.4419 -3.61549,0 z"
         id="path4485"
         inkscape:connector-curvature="0"
         sodipodi:nodetypes="ccccccccc" />
      <rect
         style="fill:#ffffff;fill-opacity:1;stroke:none"
         id="rect4489"
         width="108.73406"
         height="3.3075001"
         x="329.633"
         y="821.61316" />
      <path
         style="fill:#ffffff;fill-opacity:1;stroke:none"
         d="m 167.67095,371.00848 432.65817,0 0,13.14564 -3.61549,2e-5 0,-7.44191 -425.42719,0 0,7.44191 -3.61549,-2e-5 z"
         id="path4491"
         inkscape:connector-curvature="0"
         sodipodi:nodetypes="ccccccccc" />
      <path
         style="fill:#ffffff;fill-opacity:1;stroke:none"
         d="m 167.67095,115.00848 432.65817,0 0,13.14564 -3.61549,2e-5 0,-7.44191 -425.42719,0 0,7.44191 -3.61549,-2e-5 z"
         id="path4495"
         inkscape:connector-curvature="0"
         sodipodi:nodetypes="ccccccccc" />
      <g
         id="g5043">
        <path
           style="font-size:22.08681488px;font-style:normal;font-variant:normal;font-weight:bold;font-stretch:normal;text-align:center;line-height:125%;letter-spacing:0px;word-spacing:0px;writing-mode:lr-tb;text-anchor:middle;fill:#ffffff;fill-opacity:1;stroke:none;font-family:Liberation Sans;-inkscape-font-specification:Sans Bold"
           id="path4663"
           d="m 617.09099,1143.0489 c 0.95154,0.32 1.67307,0.8778 2.1646,1.6734 0.49781,0.7876 0.74673,1.7924 0.74674,3.0147 -10e-6,1.821 -0.53565,3.2072 -1.60691,4.1589 -1.07128,0.9433 -2.63408,1.415 -4.68839,1.415 -0.72469,0 -1.45252,-0.078 -2.18351,-0.2338 -0.72469,-0.1476 -1.44306,-0.3733 -2.15515,-0.6768 l 0,-3.6544 c 0.68058,0.443 1.35485,0.7793 2.02282,1.0089 0.67426,0.2216 1.33593,0.3323 1.985,0.3323 0.96414,0 1.70143,-0.2174 2.21187,-0.6522 0.51672,-0.4347 0.77509,-1.0581 0.7751,-1.8702 -10e-6,-0.8368 -0.26468,-1.4684 -0.79401,-1.8949 -0.52304,-0.4348 -1.29814,-0.6521 -2.32529,-0.6521 l -1.45567,0 0,-3.0516 1.53129,0 c 0.91373,0 1.5943,-0.1846 2.04172,-0.5537 0.4474,-0.3773 0.67111,-0.9474 0.67112,-1.7103 -10e-6,-0.7054 -0.21742,-1.2509 -0.65222,-1.6365 -0.43482,-0.3855 -1.04922,-0.5783 -1.84321,-0.5783 -0.58606,0 -1.17841,0.086 -1.77706,0.2584 -0.59865,0.1723 -1.19416,0.4265 -1.7865,0.7629 l 0,-3.4699 c 0.71838,-0.2625 1.43046,-0.4594 2.13624,-0.5906 0.70578,-0.1313 1.39895,-0.1969 2.07953,-0.1969 1.83376,0 3.20436,0.3938 4.1118,1.1812 0.91372,0.7793 1.37059,1.9565 1.3706,3.5314 -1e-5,1.0746 -0.21742,1.9564 -0.65222,2.6454 -0.43482,0.6809 -1.07758,1.1608 -1.92829,1.4397"
           inkscape:connector-curvature="0" />
        <path
           style="font-size:22.08681488px;font-style:normal;font-variant:normal;font-weight:bold;font-stretch:normal;text-align:center;line-height:125%;letter-spacing:0px;word-spacing:0px;writing-mode:lr-tb;text-anchor:middle;fill:#ffffff;fill-opacity:1;stroke:none;font-family:Liberation Sans;-inkscape-font-specification:Sans Bold"
           id="path4665"
           d="m 630.43779,1143.7503 c -10e-6,-2.2968 -0.167,-3.9128 -0.50098,-4.848 -0.32769,-0.9433 -0.88223,-1.415 -1.66362,-1.415 -0.78141,0 -1.3391,0.4717 -1.67307,1.415 -0.334,0.9352 -0.50099,2.5512 -0.50099,4.848 0,2.3215 0.16699,3.9579 0.50099,4.9095 0.33397,0.9515 0.89166,1.4273 1.67307,1.4273 0.77509,0 1.32963,-0.4758 1.66362,-1.4273 0.33398,-0.9516 0.50097,-2.588 0.50098,-4.9095 m 3.63918,0.037 c -2e-5,3.0434 -0.50415,5.3936 -1.51239,7.0505 -1.00826,1.6488 -2.43873,2.4732 -4.29139,2.4732 -1.85898,0 -3.2926,-0.8244 -4.30085,-2.4732 -1.00825,-1.6569 -1.51238,-4.0071 -1.51238,-7.0505 0,-3.0515 0.50413,-5.4016 1.51238,-7.0504 1.00825,-1.657 2.44187,-2.4855 4.30085,-2.4855 1.85266,0 3.28313,0.8285 4.29139,2.4855 1.00824,1.6488 1.51237,3.9989 1.51239,7.0504"
           inkscape:connector-curvature="0" />
      </g>
      <g
         id="g5037">
        <path
           style="font-size:22.08681488px;font-style:normal;font-variant:normal;font-weight:bold;font-stretch:normal;text-align:center;line-height:125%;letter-spacing:0px;word-spacing:0px;writing-mode:lr-tb;text-anchor:middle;fill:#ffffff;fill-opacity:1;stroke:none;font-family:Liberation Sans;-inkscape-font-specification:Sans Bold"
           id="path4658"
           d="m 142.11305,1143.1751 c 0.95153,0.3199 1.67307,0.8777 2.16461,1.6734 0.49781,0.7875 0.74672,1.7924 0.74674,3.0147 -2e-5,1.821 -0.53565,3.2072 -1.60692,4.1589 -1.07127,0.9433 -2.63407,1.415 -4.68839,1.415 -0.72469,0 -1.45253,-0.078 -2.18351,-0.2338 -0.72468,-0.1476 -1.44307,-0.3733 -2.15514,-0.6768 l 0,-3.6544 c 0.68057,0.4429 1.35483,0.7792 2.02281,1.0089 0.67427,0.2216 1.33593,0.3323 1.98501,0.3323 0.96414,0 1.70142,-0.2174 2.21186,-0.6522 0.51673,-0.4347 0.77509,-1.0581 0.7751,-1.8702 -1e-5,-0.8368 -0.26468,-1.4684 -0.79401,-1.8949 -0.52303,-0.4348 -1.29813,-0.6521 -2.32529,-0.6521 l -1.45567,0 0,-3.0516 1.53129,0 c 0.91373,0 1.5943,-0.1846 2.04172,-0.5537 0.44741,-0.3773 0.67112,-0.9474 0.67113,-1.7103 -1e-5,-0.7055 -0.21742,-1.251 -0.65222,-1.6365 -0.43482,-0.3856 -1.04923,-0.5783 -1.84322,-0.5783 -0.58605,0 -1.17841,0.086 -1.77705,0.2584 -0.59866,0.1722 -1.19416,0.4265 -1.78651,0.7628 l 0,-3.4698 c 0.71838,-0.2625 1.43046,-0.4594 2.13625,-0.5906 0.70577,-0.1313 1.39895,-0.1969 2.07952,-0.1969 1.83376,0 3.20436,0.3937 4.1118,1.1812 0.91372,0.7793 1.37058,1.9564 1.3706,3.5314 -2e-5,1.0746 -0.21742,1.9564 -0.65222,2.6454 -0.43482,0.6809 -1.07758,1.1608 -1.92829,1.4397"
           inkscape:connector-curvature="0" />
        <path
           style="font-size:22.08681488px;font-style:normal;font-variant:normal;font-weight:bold;font-stretch:normal;text-align:center;line-height:125%;letter-spacing:0px;word-spacing:0px;writing-mode:lr-tb;text-anchor:middle;fill:#ffffff;fill-opacity:1;stroke:none;font-family:Liberation Sans;-inkscape-font-specification:Sans Bold"
           id="path4660"
           d="m 155.45985,1143.8765 c -10e-6,-2.2969 -0.167,-3.9129 -0.50098,-4.848 -0.32769,-0.9433 -0.88223,-1.415 -1.66362,-1.415 -0.78141,0 -1.3391,0.4717 -1.67308,1.415 -0.33399,0.9351 -0.50097,2.5511 -0.50097,4.848 0,2.3215 0.16698,3.9579 0.50097,4.9094 0.33398,0.9516 0.89167,1.4274 1.67308,1.4274 0.77509,0 1.32963,-0.4758 1.66362,-1.4274 0.33398,-0.9515 0.50097,-2.5879 0.50098,-4.9094 m 3.63917,0.036 c -1e-5,3.0433 -0.50414,5.3935 -1.51238,7.0505 -1.00826,1.6488 -2.43873,2.4732 -4.29139,2.4732 -1.85898,0 -3.29259,-0.8244 -4.30085,-2.4732 -1.00826,-1.657 -1.51238,-4.0072 -1.51238,-7.0505 0,-3.0515 0.50412,-5.4016 1.51238,-7.0505 1.00826,-1.6569 2.44187,-2.4854 4.30085,-2.4855 1.85266,10e-5 3.28313,0.8286 4.29139,2.4855 1.00824,1.6489 1.51237,3.999 1.51238,7.0505"
           inkscape:connector-curvature="0" />
      </g>
      <g
         id="g5079">
        <path
           style="font-size:22.08681488px;font-style:normal;font-variant:normal;font-weight:bold;font-stretch:normal;text-align:center;line-height:125%;letter-spacing:0px;word-spacing:0px;writing-mode:lr-tb;text-anchor:middle;fill:#ffffff;fill-opacity:1;stroke:none;font-family:Liberation Sans;-inkscape-font-specification:Sans Bold"
           id="path4673"
           d="m 142.11305,375.30721 c 0.95153,0.31993 1.67307,0.87773 2.16461,1.67341 0.49781,0.78749 0.74672,1.79236 0.74674,3.0146 -2e-5,1.82107 -0.53565,3.20737 -1.60692,4.15892 -1.07127,0.94335 -2.63407,1.41502 -4.68839,1.41502 -0.72469,0 -1.45253,-0.0779 -2.18351,-0.23379 -0.72468,-0.14766 -1.44307,-0.37323 -2.15514,-0.67674 l 0,-3.65444 c 0.68057,0.44297 1.35483,0.77928 2.02281,1.00896 0.67427,0.22149 1.33593,0.33223 1.98501,0.33223 0.96414,0 1.70142,-0.21738 2.21186,-0.65214 0.51673,-0.43476 0.77509,-1.05819 0.7751,-1.87028 -1e-5,-0.83671 -0.26468,-1.46833 -0.79401,-1.8949 -0.52303,-0.43474 -1.29813,-0.65212 -2.32529,-0.65214 l -1.45567,0 0,-3.0515 1.53129,0 c 0.91373,10e-6 1.5943,-0.18456 2.04172,-0.55371 0.44741,-0.37733 0.67112,-0.94743 0.67113,-1.71033 -1e-5,-0.70544 -0.21742,-1.25094 -0.65222,-1.6365 -0.43482,-0.38552 -1.04923,-0.57829 -1.84322,-0.57831 -0.58605,2e-5 -1.17841,0.0861 -1.77705,0.2584 -0.59866,0.17227 -1.19416,0.42656 -1.78651,0.76288 l 0,-3.46987 c 0.71838,-0.26248 1.43046,-0.45935 2.13625,-0.59062 0.70577,-0.13123 1.39895,-0.19685 2.07952,-0.19686 1.83376,10e-6 3.20436,0.39375 4.1118,1.18123 0.91372,0.77929 1.37058,1.95643 1.3706,3.53138 -2e-5,1.0746 -0.21742,1.95643 -0.65222,2.64547 -0.43482,0.68086 -1.07758,1.16074 -1.92829,1.43963"
           inkscape:connector-curvature="0" />
        <path
           style="font-size:22.08681488px;font-style:normal;font-variant:normal;font-weight:bold;font-stretch:normal;text-align:center;line-height:125%;letter-spacing:0px;word-spacing:0px;writing-mode:lr-tb;text-anchor:middle;fill:#ffffff;fill-opacity:1;stroke:none;font-family:Liberation Sans;-inkscape-font-specification:Sans Bold"
           id="path4675"
           d="m 155.45985,376.00856 c -10e-6,-2.29682 -0.167,-3.91281 -0.50098,-4.84796 -0.32769,-0.94334 -0.88223,-1.41501 -1.66362,-1.41503 -0.78141,2e-5 -1.3391,0.47169 -1.67308,1.41503 -0.33399,0.93515 -0.50097,2.55114 -0.50097,4.84796 0,2.32146 0.16698,3.95795 0.50097,4.9095 0.33398,0.95155 0.89167,1.42732 1.67308,1.42732 0.77509,0 1.32963,-0.47577 1.66362,-1.42732 0.33398,-0.95155 0.50097,-2.58804 0.50098,-4.9095 m 3.63917,0.037 c -1e-5,3.04332 -0.50414,5.39348 -1.51238,7.05048 -1.00826,1.6488 -2.43873,2.47321 -4.29139,2.47321 -1.85898,0 -3.29259,-0.82441 -4.30085,-2.47321 -1.00826,-1.657 -1.51238,-4.00716 -1.51238,-7.05048 0,-3.0515 0.50412,-5.40165 1.51238,-7.05047 1.00826,-1.657 2.44187,-2.4855 4.30085,-2.48551 1.85266,10e-6 3.28313,0.82851 4.29139,2.48551 1.00824,1.64882 1.51237,3.99897 1.51238,7.05047"
           inkscape:connector-curvature="0" />
      </g>
      <g
         id="g5061">
        <path
           style="font-size:22.08681488px;font-style:normal;font-variant:normal;font-weight:bold;font-stretch:normal;text-align:center;line-height:125%;letter-spacing:0px;word-spacing:0px;writing-mode:lr-tb;text-anchor:middle;fill:#ffffff;fill-opacity:1;stroke:none;font-family:Liberation Sans;-inkscape-font-specification:Sans Bold"
           id="path4668"
           d="m 616.71834,374.82786 c 0.95154,0.31993 1.67307,0.87773 2.1646,1.67342 0.49781,0.78749 0.74673,1.79235 0.74674,3.0146 -10e-6,1.82106 -0.53565,3.20737 -1.60691,4.15891 -1.07128,0.94335 -2.63408,1.41502 -4.68839,1.41502 -0.72469,0 -1.45252,-0.0779 -2.18351,-0.23379 -0.72469,-0.14765 -1.44306,-0.37323 -2.15515,-0.67674 l 0,-3.65444 c 0.68058,0.44297 1.35485,0.77929 2.02282,1.00897 0.67426,0.22148 1.33593,0.33222 1.985,0.33222 0.96414,0 1.70143,-0.21737 2.21187,-0.65214 0.51672,-0.43475 0.77509,-1.05818 0.7751,-1.87028 -10e-6,-0.8367 -0.26468,-1.46833 -0.79401,-1.89489 -0.52304,-0.43475 -1.29814,-0.65214 -2.32529,-0.65214 l -1.45567,0 0,-3.05152 1.53129,0 c 0.91372,10e-6 1.59429,-0.18455 2.04172,-0.5537 0.4474,-0.37732 0.67111,-0.94744 0.67112,-1.71032 -10e-6,-0.70545 -0.21742,-1.25095 -0.65222,-1.6365 -0.43482,-0.38552 -1.04922,-0.5783 -1.84321,-0.57832 -0.58606,2e-5 -1.17841,0.0861 -1.77706,0.2584 -0.59865,0.17228 -1.19416,0.42657 -1.78651,0.76287 l 0,-3.46986 c 0.71839,-0.26247 1.43046,-0.45934 2.13625,-0.59062 0.70578,-0.13123 1.39895,-0.19684 2.07953,-0.19687 1.83376,3e-5 3.20435,0.39376 4.11179,1.18124 0.91373,0.7793 1.3706,1.95642 1.37061,3.53138 -10e-6,1.07461 -0.21742,1.95643 -0.65222,2.64548 -0.43482,0.68085 -1.07758,1.16073 -1.92829,1.43962"
           inkscape:connector-curvature="0" />
        <path
           style="font-size:22.08681488px;font-style:normal;font-variant:normal;font-weight:bold;font-stretch:normal;text-align:center;line-height:125%;letter-spacing:0px;word-spacing:0px;writing-mode:lr-tb;text-anchor:middle;fill:#ffffff;fill-opacity:1;stroke:none;font-family:Liberation Sans;-inkscape-font-specification:Sans Bold"
           id="path4670"
           d="m 630.06513,375.52921 c 0,-2.29683 -0.16699,-3.91281 -0.50097,-4.84797 -0.32769,-0.94332 -0.88223,-1.415 -1.66363,-1.41502 -0.7814,2e-5 -1.33909,0.4717 -1.67307,1.41502 -0.33399,0.93516 -0.50098,2.55114 -0.50098,4.84797 0,2.32146 0.16699,3.95796 0.50098,4.9095 0.33398,0.95155 0.89167,1.42732 1.67307,1.42732 0.77509,0 1.32964,-0.47577 1.66363,-1.42732 0.33398,-0.95154 0.50097,-2.58804 0.50097,-4.9095 m 3.63919,0.037 c -2e-5,3.04331 -0.50415,5.39347 -1.51239,7.05047 -1.00827,1.6488 -2.43873,2.4732 -4.2914,2.4732 -1.85897,0 -3.29259,-0.8244 -4.30084,-2.4732 -1.00825,-1.657 -1.51238,-4.00716 -1.51238,-7.05047 0,-3.05151 0.50413,-5.40167 1.51238,-7.05049 1.00825,-1.65698 2.44187,-2.48548 4.30084,-2.4855 1.85267,2e-5 3.28313,0.82852 4.2914,2.4855 1.00824,1.64882 1.51237,3.99898 1.51239,7.05049"
           inkscape:connector-curvature="0" />
      </g>
      <g
         id="g5067">
        <path
           style="font-size:22.08681488px;font-style:normal;font-variant:normal;font-weight:bold;font-stretch:normal;text-align:center;line-height:125%;letter-spacing:0px;word-spacing:0px;writing-mode:lr-tb;text-anchor:middle;fill:#ffffff;fill-opacity:1;stroke:none;font-family:Liberation Sans;-inkscape-font-specification:Sans Bold"
           id="path4683"
           d="m 609.64573,111.29885 9.04595,0 0,3.48217 -6.14406,0 0,2.84234 c 0.27726,-0.0985 0.55453,-0.17224 0.83181,-0.22147 0.28356,-0.0574 0.57659,-0.0861 0.87907,-0.0861 1.72033,2e-5 3.05942,0.56193 4.01727,1.68572 0.95783,1.11562 1.43676,2.67419 1.43677,4.67571 -10e-6,1.98514 -0.52304,3.53961 -1.5691,4.66341 -1.03978,1.12381 -2.48599,1.68571 -4.33866,1.68571 -0.80031,0 -1.59431,-0.10257 -2.382,-0.30761 -0.78141,-0.19686 -1.55965,-0.50037 -2.33475,-0.91053 l 0,-3.72827 c 0.76879,0.57423 1.49664,1.00488 2.18351,1.29198 0.69317,0.28711 1.34539,0.43066 1.95665,0.43065 0.88222,1e-5 1.57539,-0.27889 2.07953,-0.8367 0.51042,-0.566 0.76563,-1.32888 0.76564,-2.28864 -10e-6,-0.96794 -0.25522,-1.73082 -0.76564,-2.28863 -0.50414,-0.55779 -1.19731,-0.83669 -2.07953,-0.83671 -0.52304,2e-5 -1.08073,0.0903 -1.67307,0.2707 -0.59236,0.17227 -1.22882,0.44297 -1.90939,0.8121 l 0,-10.33578"
           inkscape:connector-curvature="0" />
        <path
           style="font-size:22.08681488px;font-style:normal;font-variant:normal;font-weight:bold;font-stretch:normal;text-align:center;line-height:125%;letter-spacing:0px;word-spacing:0px;writing-mode:lr-tb;text-anchor:middle;fill:#ffffff;fill-opacity:1;stroke:none;font-family:Liberation Sans;-inkscape-font-specification:Sans Bold"
           id="path4685"
           d="m 629.95895,120.46571 c -10e-6,-2.29684 -0.167,-3.91283 -0.50098,-4.84798 -0.32769,-0.94333 -0.88223,-1.415 -1.66362,-1.41501 -0.78141,1e-5 -1.3391,0.47168 -1.67308,1.41501 -0.33399,0.93515 -0.50098,2.55114 -0.50097,4.84798 -1e-5,2.32144 0.16698,3.95794 0.50097,4.90948 0.33398,0.95155 0.89167,1.42733 1.67308,1.42732 0.77509,1e-5 1.32963,-0.47577 1.66362,-1.42732 0.33398,-0.95154 0.50097,-2.58804 0.50098,-4.90948 m 3.63917,0.0369 c 0,3.04331 -0.50414,5.39347 -1.51238,7.05047 -1.00827,1.64881 -2.43873,2.47321 -4.29139,2.47321 -1.85898,0 -3.29259,-0.8244 -4.30085,-2.47321 -1.00826,-1.657 -1.51239,-4.00716 -1.51239,-7.05047 0,-3.0515 0.50413,-5.40167 1.51239,-7.05048 1.00826,-1.65699 2.44187,-2.48549 4.30085,-2.48551 1.85266,2e-5 3.28312,0.82852 4.29139,2.48551 1.00824,1.64881 1.51238,3.99898 1.51238,7.05048"
           inkscape:connector-curvature="0" />
      </g>
      <g
         id="g5073">
        <path
           style="font-size:22.08681488px;font-style:normal;font-variant:normal;font-weight:bold;font-stretch:normal;text-align:center;line-height:125%;letter-spacing:0px;word-spacing:0px;writing-mode:lr-tb;text-anchor:middle;fill:#ffffff;fill-opacity:1;stroke:none;font-family:Liberation Sans;-inkscape-font-specification:Sans Bold"
           id="path4678"
           d="m 135.15357,111.29885 9.04595,0 0,3.48217 -6.14406,0 0,2.84234 c 0.27726,-0.0985 0.55454,-0.17224 0.83181,-0.22147 0.28356,-0.0574 0.57659,-0.0861 0.87908,-0.0861 1.72032,2e-5 3.05941,0.56193 4.01726,1.68572 0.95784,1.11562 1.43676,2.67419 1.43677,4.67571 -1e-5,1.98514 -0.52304,3.53961 -1.5691,4.66341 -1.03977,1.12381 -2.48598,1.68571 -4.33865,1.68571 -0.80031,0 -1.59432,-0.10257 -2.38201,-0.30761 -0.7814,-0.19686 -1.55964,-0.50037 -2.33475,-0.91053 l 0,-3.72827 c 0.7688,0.57423 1.49664,1.00488 2.18351,1.29198 0.69317,0.28711 1.34539,0.43066 1.95665,0.43065 0.88222,1e-5 1.5754,-0.27889 2.07954,-0.8367 0.51041,-0.566 0.76563,-1.32888 0.76564,-2.28864 -1e-5,-0.96794 -0.25523,-1.73082 -0.76564,-2.28863 -0.50414,-0.55779 -1.19732,-0.83669 -2.07954,-0.83671 -0.52303,2e-5 -1.08072,0.0903 -1.67307,0.2707 -0.59236,0.17227 -1.22882,0.44297 -1.90939,0.8121 l 0,-10.33578"
           inkscape:connector-curvature="0" />
        <path
           style="font-size:22.08681488px;font-style:normal;font-variant:normal;font-weight:bold;font-stretch:normal;text-align:center;line-height:125%;letter-spacing:0px;word-spacing:0px;writing-mode:lr-tb;text-anchor:middle;fill:#ffffff;fill-opacity:1;stroke:none;font-family:Liberation Sans;-inkscape-font-specification:Sans Bold"
           id="path4680"
           d="m 155.46679,120.46571 c -1e-5,-2.29684 -0.167,-3.91283 -0.50097,-4.84798 -0.3277,-0.94333 -0.88224,-1.415 -1.66363,-1.41501 -0.78141,1e-5 -1.3391,0.47168 -1.67308,1.41501 -0.33399,0.93515 -0.50098,2.55114 -0.50097,4.84798 -1e-5,2.32144 0.16698,3.95794 0.50097,4.90948 0.33398,0.95155 0.89167,1.42733 1.67308,1.42732 0.77509,1e-5 1.32963,-0.47577 1.66363,-1.42732 0.33397,-0.95154 0.50096,-2.58804 0.50097,-4.90948 m 3.63918,0.0369 c -1e-5,3.04331 -0.50414,5.39347 -1.51239,7.05047 -1.00827,1.64881 -2.43873,2.47321 -4.29139,2.47321 -1.85898,0 -3.29259,-0.8244 -4.30084,-2.47321 -1.00827,-1.657 -1.51239,-4.00716 -1.51239,-7.05047 0,-3.0515 0.50412,-5.40167 1.51239,-7.05048 1.00825,-1.65699 2.44186,-2.48549 4.30084,-2.48551 1.85266,2e-5 3.28312,0.82852 4.29139,2.48551 1.00825,1.64881 1.51238,3.99898 1.51239,7.05048"
           inkscape:connector-curvature="0" />
      </g>
      <g
         id="g5055">
        <path
           style="font-size:22.08681488px;font-style:normal;font-variant:normal;font-weight:bold;font-stretch:normal;text-align:center;line-height:125%;letter-spacing:0px;word-spacing:0px;writing-mode:lr-tb;text-anchor:middle;fill:#ffffff;fill-opacity:1;stroke:none;font-family:Liberation Sans;-inkscape-font-specification:Sans Bold"
           id="path4653"
           d="m 134.9098,1390.6645 9.04595,0 0,3.4822 -6.14406,0 0,2.8424 c 0.27727,-0.098 0.55454,-0.1723 0.83181,-0.2215 0.28357,-0.057 0.57659,-0.085 0.87908,-0.085 1.72033,0 3.05941,0.5619 4.01727,1.6856 0.95783,1.1157 1.43675,2.6742 1.43677,4.6757 -2e-5,1.9852 -0.52305,3.5397 -1.5691,4.6634 -1.03978,1.1238 -2.486,1.6857 -4.33865,1.6857 -0.80031,0 -1.59432,-0.1027 -2.38202,-0.3076 -0.7814,-0.1968 -1.55965,-0.5004 -2.33474,-0.9104 l 0,-3.7284 c 0.76879,0.5742 1.49663,1.0049 2.18351,1.292 0.69317,0.2872 1.34539,0.4307 1.95665,0.4307 0.88221,0 1.57539,-0.279 2.07952,-0.8368 0.51042,-0.566 0.76564,-1.3288 0.76565,-2.2886 -10e-6,-0.9679 -0.25523,-1.7308 -0.76565,-2.2886 -0.50413,-0.5578 -1.19731,-0.8367 -2.07952,-0.8367 -0.52305,0 -1.08074,0.09 -1.67308,0.2707 -0.59235,0.1723 -1.22881,0.4429 -1.90939,0.812 l 0,-10.3357"
           inkscape:connector-curvature="0" />
        <path
           style="font-size:22.08681488px;font-style:normal;font-variant:normal;font-weight:bold;font-stretch:normal;text-align:center;line-height:125%;letter-spacing:0px;word-spacing:0px;writing-mode:lr-tb;text-anchor:middle;fill:#ffffff;fill-opacity:1;stroke:none;font-family:Liberation Sans;-inkscape-font-specification:Sans Bold"
           id="path4655"
           d="m 155.22303,1399.8314 c -1e-5,-2.2968 -0.16701,-3.9129 -0.50098,-4.848 -0.3277,-0.9433 -0.88223,-1.415 -1.66363,-1.415 -0.7814,0 -1.33909,0.4717 -1.67307,1.415 -0.33399,0.9351 -0.50099,2.5512 -0.50098,4.848 -1e-5,2.3214 0.16699,3.958 0.50098,4.9095 0.33398,0.9516 0.89167,1.4273 1.67307,1.4273 0.7751,0 1.32963,-0.4757 1.66363,-1.4273 0.33397,-0.9515 0.50097,-2.5881 0.50098,-4.9095 m 3.63917,0.036 c -1e-5,3.0433 -0.50414,5.3934 -1.51238,7.0504 -1.00827,1.6489 -2.43873,2.4732 -4.2914,2.4732 -1.85897,0 -3.29259,-0.8243 -4.30084,-2.4732 -1.00826,-1.657 -1.51239,-4.0071 -1.51238,-7.0504 -1e-5,-3.0516 0.50412,-5.4018 1.51238,-7.0505 1.00825,-1.657 2.44187,-2.4856 4.30084,-2.4856 1.85267,0 3.28313,0.8286 4.2914,2.4856 1.00824,1.6487 1.51237,3.9989 1.51238,7.0505"
           inkscape:connector-curvature="0" />
      </g>
      <g
         id="g5049">
        <path
           style="font-size:22.08681488px;font-style:normal;font-variant:normal;font-weight:bold;font-stretch:normal;text-align:center;line-height:125%;letter-spacing:0px;word-spacing:0px;writing-mode:lr-tb;text-anchor:middle;fill:#ffffff;fill-opacity:1;stroke:none;font-family:Liberation Sans;-inkscape-font-specification:Sans Bold"
           id="path4648"
           d="m 609.54649,1390.6645 9.04595,0 0,3.4822 -6.14406,0 0,2.8424 c 0.27727,-0.098 0.55453,-0.1723 0.83181,-0.2215 0.28357,-0.057 0.57659,-0.085 0.87907,-0.085 1.72034,0 3.05942,0.5619 4.01728,1.6856 0.95783,1.1157 1.43675,2.6742 1.43677,4.6757 -2e-5,1.9852 -0.52305,3.5397 -1.5691,4.6634 -1.03978,1.1238 -2.486,1.6857 -4.33866,1.6857 -0.80031,0 -1.59431,-0.1027 -2.38201,-0.3076 -0.7814,-0.1968 -1.55965,-0.5004 -2.33474,-0.9104 l 0,-3.7284 c 0.76879,0.5742 1.49663,1.0049 2.18351,1.292 0.69317,0.2872 1.34539,0.4307 1.95665,0.4307 0.88221,0 1.57539,-0.279 2.07952,-0.8368 0.51042,-0.566 0.76564,-1.3288 0.76565,-2.2886 -10e-6,-0.9679 -0.25523,-1.7308 -0.76565,-2.2886 -0.50413,-0.5578 -1.19731,-0.8367 -2.07952,-0.8367 -0.52305,0 -1.08074,0.09 -1.67308,0.2707 -0.59235,0.1723 -1.22882,0.4429 -1.90939,0.812 l 0,-10.3357"
           inkscape:connector-curvature="0" />
        <path
           style="font-size:22.08681488px;font-style:normal;font-variant:normal;font-weight:bold;font-stretch:normal;text-align:center;line-height:125%;letter-spacing:0px;word-spacing:0px;writing-mode:lr-tb;text-anchor:middle;fill:#ffffff;fill-opacity:1;stroke:none;font-family:Liberation Sans;-inkscape-font-specification:Sans Bold"
           id="path4650"
           d="m 629.85972,1399.8314 c -1e-5,-2.2968 -0.16701,-3.9129 -0.50098,-4.848 -0.3277,-0.9433 -0.88223,-1.415 -1.66363,-1.415 -0.7814,0 -1.33909,0.4717 -1.67307,1.415 -0.33399,0.9351 -0.50099,2.5512 -0.50098,4.848 -1e-5,2.3214 0.16699,3.958 0.50098,4.9095 0.33398,0.9516 0.89167,1.4273 1.67307,1.4273 0.7751,0 1.32963,-0.4757 1.66363,-1.4273 0.33397,-0.9515 0.50097,-2.5881 0.50098,-4.9095 m 3.63917,0.036 c -10e-6,3.0433 -0.50414,5.3934 -1.51238,7.0504 -1.00827,1.6489 -2.43873,2.4732 -4.2914,2.4732 -1.85897,0 -3.29259,-0.8243 -4.30084,-2.4732 -1.00826,-1.657 -1.51239,-4.0071 -1.51239,-7.0504 0,-3.0516 0.50413,-5.4018 1.51239,-7.0505 1.00825,-1.657 2.44187,-2.4856 4.30084,-2.4856 1.85267,0 3.28313,0.8286 4.2914,2.4856 1.00824,1.6487 1.51237,3.9989 1.51238,7.0505"
           inkscape:connector-curvature="0" />
      </g>
      <path
         sodipodi:nodetypes="ccccccc"
         inkscape:connector-curvature="0"
         id="rect4687"
         d="m 222.99048,1272.0704 160.9773,-122.2285 161.04173,122.2285 -18.68781,0 -142.35392,-109.0014 -142.28947,109.0014 z"
         style="fill:#ffffff;fill-opacity:1;stroke:none" />
      <path
         style="fill:#ffffff;fill-opacity:1;stroke:none"
         d="m 222.99048,1400.0704 160.9773,-122.2285 161.04173,122.2285 -18.68781,0 -142.35392,-109.0014 -142.28947,109.0014 z"
         id="path4702"
         inkscape:connector-curvature="0"
         sodipodi:nodetypes="ccccccc" />
      <path
         sodipodi:nodetypes="ccccccc"
         inkscape:connector-curvature="0"
         id="path4704"
         d="m 222.99048,1528.0704 160.9773,-122.2285 161.04173,122.2285 -18.68781,0 -142.35392,-109.0014 -142.28947,109.0014 z"
         style="fill:#ffffff;fill-opacity:1;stroke:none" />
      <path
         style="fill:#ffffff;fill-opacity:1;stroke:none"
         d="m 222.99048,1656.0704 160.9773,-122.2285 161.04173,122.2285 -18.68781,0 -142.35392,-109.0014 -142.28947,109.0014 z"
         id="path4706"
         inkscape:connector-curvature="0"
         sodipodi:nodetypes="ccccccc" />
      <path
         sodipodi:nodetypes="ccccccc"
         inkscape:connector-curvature="0"
         id="path4708"
         d="m 222.99048,1784.0704 160.9773,-122.2285 161.04173,122.2285 -18.68781,0 -142.35392,-109.0014 -142.28947,109.0014 z"
         style="fill:#ffffff;fill-opacity:1;stroke:none" />
      <path
         style="fill:#ffffff;fill-opacity:1;stroke:none"
         d="m 222.99048,248.61015 160.9773,122.2285 161.04173,-122.2285 -18.68781,0 -142.35392,109.0014 -142.28947,-109.0014 z"
         id="path4710"
         inkscape:connector-curvature="0"
         sodipodi:nodetypes="ccccccc" />
      <path
         sodipodi:nodetypes="ccccccc"
         inkscape:connector-curvature="0"
         id="path4712"
         d="m 222.99048,120.61015 160.9773,122.2285 161.04173,-122.2285 -18.68781,0 -142.35392,109.0014 -142.28947,-109.0014 z"
         style="fill:#ffffff;fill-opacity:1;stroke:none" />
      <path
         style="fill:#ffffff;fill-opacity:1;stroke:none"
         d="m 222.99048,-7.38985 160.9773,122.2285 161.04173,-122.2285 -18.68781,0 -142.35392,109.0014 -142.28947,-109.0014 z"
         id="path4714"
         inkscape:connector-curvature="0"
         sodipodi:nodetypes="ccccccc" />
      <path
         sodipodi:nodetypes="ccccccc"
         inkscape:connector-curvature="0"
         id="path4716"
         d="m 222.99048,-135.38985 160.9773,122.2285 161.04173,-122.2285 -18.68781,0 -142.35392,109.0014 -142.28947,-109.0014 z"
         style="fill:#ffffff;fill-opacity:1;stroke:none" />
      <path
         style="fill:#ffffff;fill-opacity:1;stroke:none"
         d="m 222.99048,-263.38985 160.9773,122.2285 161.04173,-122.2285 -18.68781,0 -142.35392,109.0014 -142.28947,-109.0014 z"
         id="path4718"
         inkscape:connector-curvature="0"
         sodipodi:nodetypes="ccccccc" />
    </g>
  </g>
</svg>
